<?xml version="1.0" encoding="UTF-8" standalone="no"?><svg xmlns:dc="http://purl.org/dc/elements/1.1/" xmlns:cc="http://creativecommons.org/ns#" xmlns:rdf="http://www.w3.org/1999/02/22-rdf-syntax-ns#" xmlns:svg="http://www.w3.org/2000/svg" xmlns="http://www.w3.org/2000/svg" version="1.1" width="16" height="16"><g transform="translate(0,-1036.3622)"><path d="m 31.567267,17.479057 a 15.846768,15.846768 0 1 1 -31.69353634,0 15.846768,15.846768 0 1 1 31.69353634,0 z" transform="matrix(0.50483479,0,0,0.50483479,0.06374515,1035.5382)" style="fill:#f6f8fa"/><path style="fill:#333" d="m 8.1539959,1045.3607 c -6.7e-6,0.7512 0.1661221,1.317 0.4983869,1.6974 0.3370659,0.3804 0.8619367,0.5706 1.5746142,0.5706 0.678952,0 1.167708,-0.1902 1.466269,-0.5706 0.303355,-0.3852 0.455038,-0.9342 0.455049,-1.6469 -1.1e-5,-0.756 -0.151694,-1.3145 -0.455049,-1.6757 -0.298561,-0.366 -0.806578,-0.5489 -1.524053,-0.5489 l -1.7696352,0 c -0.077052,0.2841 -0.1372437,0.6043 -0.1805749,0.9606 -0.043345,0.3515 -0.065014,0.756 -0.065007,1.2135 M 2,1041.3808 l 8.003084,0 c 1.434959,0 2.499147,0.3299 3.192566,0.9896 0.698211,0.6597 1.047322,1.6372 1.047335,2.9325 -1.3e-5,1.2472 -0.337086,2.2367 -1.01122,2.9686 -0.674158,0.7272 -1.682969,1.0907 -3.026437,1.0907 -1.2760709,0 -2.2511749,-0.3395 -2.9253151,-1.0184 -0.6693364,-0.6838 -1.0040018,-1.5698 -1.003997,-2.6581 -4.8e-6,-0.496 0.026479,-0.9414 0.079453,-1.3362 0.052964,-0.3949 0.1468627,-0.7825 0.281697,-1.1629 l -4.6371659,0 0,-1.8058"/></g></svg>
