<svg xmlns="http://www.w3.org/2000/svg" width="16" height="16"><path d="M8.03 8.568c0 .706.157 1.237.469 1.595.317.357.81.536 1.48.536.638 0 1.097-.179 1.377-.536.285-.362.428-.878.428-1.548 0-.71-.143-1.235-.428-1.574-.28-.344-.758-.516-1.432-.516H8.261a6.43 6.43 0 00-.17.902c-.04.33-.06.71-.06 1.14m-5.783-3.74h7.52c1.349 0 2.349.31 3 .93.656.62.984 1.54.984 2.756 0 1.172-.316 2.102-.95 2.79-.633.683-1.581 1.025-2.844 1.025-1.199 0-2.115-.32-2.749-.957-.629-.643-.943-1.475-.943-2.498 0-.466.025-.885.074-1.256.05-.37.139-.735.265-1.092H2.248V4.828" fill="#333" stroke-width="1.043"/></svg>