<?xml version="1.0" encoding="UTF-8" standalone="no"?>
<!-- Created with Inkscape (http://www.inkscape.org/) -->

<svg
   xmlns:dc="http://purl.org/dc/elements/1.1/"
   xmlns:cc="http://creativecommons.org/ns#"
   xmlns:rdf="http://www.w3.org/1999/02/22-rdf-syntax-ns#"
   xmlns:svg="http://www.w3.org/2000/svg"
   xmlns="http://www.w3.org/2000/svg"
   xmlns:sodipodi="http://sodipodi.sourceforge.net/DTD/sodipodi-0.dtd"
   xmlns:inkscape="http://www.inkscape.org/namespaces/inkscape"
   version="1.1"
   width="16"
   height="16"
   id="svg2"
   inkscape:version="0.48.5 r10040"
   sodipodi:docname="favicon.svg">
  <sodipodi:namedview
     pagecolor="#ffffff"
     bordercolor="#666666"
     borderopacity="1"
     objecttolerance="10"
     gridtolerance="10"
     guidetolerance="10"
     inkscape:pageopacity="0"
     inkscape:pageshadow="2"
     inkscape:window-width="1175"
     inkscape:window-height="664"
     id="namedview10"
     showgrid="true"
     inkscape:zoom="16"
     inkscape:cx="22.486207"
     inkscape:cy="11.453397"
     inkscape:window-x="0"
     inkscape:window-y="0"
     inkscape:window-maximized="0"
     inkscape:current-layer="svg2">
    <inkscape:grid
       type="xygrid"
       id="grid2987"
       empspacing="5"
       visible="true"
       enabled="true"
       snapvisiblegridlinesonly="true" />
  </sodipodi:namedview>
  <defs
     id="defs4" />
  <metadata
     id="metadata7">
    <rdf:RDF>
      <cc:Work
         rdf:about="">
        <dc:format>image/svg+xml</dc:format>
        <dc:type
           rdf:resource="http://purl.org/dc/dcmitype/StillImage" />
        <dc:title />
      </cc:Work>
    </rdf:RDF>
  </metadata>
  <g
     transform="translate(0,-1036.3622)"
     id="layer1">
    <g
       id="text2997"
       style="font-size:36px;font-style:normal;font-variant:normal;font-weight:bold;font-stretch:normal;text-align:center;line-height:125%;letter-spacing:0px;word-spacing:0px;writing-mode:lr-tb;text-anchor:middle;fill:#000000;fill-opacity:1;stroke:none;font-family:Arial;-inkscape-font-specification:Arial Bold" />
    <path
       d="m 31.567267,17.479057 a 15.846768,15.846768 0 1 1 -31.69353634,0 15.846768,15.846768 0 1 1 31.69353634,0 z"
       transform="matrix(0.50483479,0,0,0.50483479,0.06374515,1035.5382)"
       id="path2988"
       style="color:#000000;fill:#f6f8fa;fill-opacity:1;fill-rule:nonzero;stroke:none;stroke-width:1;marker:none;visibility:visible;display:inline;overflow:visible;enable-background:accumulate" />
    <g
       style="font-size:14.79270363px;font-style:normal;font-variant:normal;font-weight:bold;font-stretch:normal;text-align:start;line-height:125%;letter-spacing:0px;word-spacing:0px;writing-mode:lr-tb;text-anchor:start;fill:#333333;fill-opacity:1;stroke:none;font-family:Euphemia UCAS;-inkscape-font-specification:Euphemia UCAS Bold"
       id="text3892">
      <path
         d="m 8.1539959,1045.3607 c -6.7e-6,0.7512 0.1661221,1.317 0.4983869,1.6974 0.3370659,0.3804 0.8619367,0.5706 1.5746142,0.5706 0.678952,0 1.167708,-0.1902 1.466269,-0.5706 0.303355,-0.3852 0.455038,-0.9342 0.455049,-1.6469 -1.1e-5,-0.756 -0.151694,-1.3145 -0.455049,-1.6757 -0.298561,-0.366 -0.806578,-0.5489 -1.524053,-0.5489 l -1.7696352,0 c -0.077052,0.2841 -0.1372437,0.6043 -0.1805749,0.9606 -0.043345,0.3515 -0.065014,0.756 -0.065007,1.2135 M 2,1041.3808 l 8.003084,0 c 1.434959,0 2.499147,0.3299 3.192566,0.9896 0.698211,0.6597 1.047322,1.6372 1.047335,2.9325 -1.3e-5,1.2472 -0.337086,2.2367 -1.01122,2.9686 -0.674158,0.7272 -1.682969,1.0907 -3.026437,1.0907 -1.2760709,0 -2.2511749,-0.3395 -2.9253151,-1.0184 -0.6693364,-0.6838 -1.0040018,-1.5698 -1.003997,-2.6581 -4.8e-6,-0.496 0.026479,-0.9414 0.079453,-1.3362 0.052964,-0.3949 0.1468627,-0.7825 0.281697,-1.1629 l -4.6371659,0 0,-1.8058"
         style=""
         id="path3897" />
    </g>
  </g>
</svg>
